<svg width="66" height="16" fill="none" xmlns="http://www.w3.org/2000/svg"><path d="M6.08 15.28c-1.373 0-2.533-.307-3.48-.92a5.022 5.022 0 0 1-2.02-2.54l2.36-1.38c.547 1.427 1.62 2.14 3.22 2.14.747 0 1.307-.133 1.68-.4a1.26 1.26 0 0 0 .56-1.08c0-.493-.22-.873-.66-1.14-.44-.28-1.227-.58-2.36-.9-1.227-.373-2.193-.807-2.9-1.3-.88-.653-1.32-1.613-1.32-2.88 0-1.28.447-2.287 1.34-3.02C3.393 1.1 4.48.72 5.76.72c1.12 0 2.113.273 2.98.82.867.547 1.54 1.32 2.02 2.32L8.44 5.2C7.88 4 6.987 3.4 5.76 3.4c-.56 0-1.007.133-1.34.4-.333.253-.5.587-.5 1 0 .44.18.8.54 1.08.4.28 1.107.573 2.12.88l.96.32c.173.053.473.167.9.34.4.147.693.287.88.42.653.4 1.093.813 1.32 1.24.347.56.52 1.22.52 1.98 0 1.293-.473 2.32-1.42 3.08-.947.76-2.167 1.14-3.66 1.14Zm14.882-5.74V1h2.76v14h-2.1l-6-8.56V15h-2.76V1h2.1l6 8.54Zm8.117-.32v3.14h5.9V15h-8.66V1h8.56v2.64h-5.8v2.98h5.3v2.6h-5.3ZM49.14 15h-3l-.84-2.52h-5.58L38.88 15H35.9l4.9-14h3.42l4.92 14ZM42.52 4.18 40.6 9.9h3.84l-1.92-5.72ZM56.06 7.8l5.38 7.2h-3.18l-5-6.56V15H50.5V1h2.76v6.18L58.06 1h3.18l-5.18 6.8Zm9.825 5.76c0 .467-.167.867-.5 1.2-.333.333-.733.5-1.2.5-.467 0-.867-.167-1.2-.5a1.637 1.637 0 0 1-.5-1.2c0-.467.167-.867.5-1.2.333-.333.733-.5 1.2-.5.467 0 .867.167 1.2.5.333.333.5.733.5 1.2Z" fill="#1F1F1F"/></svg>