<svg width="20" height="20" viewBox="0 0 20 20" fill="none" xmlns="http://www.w3.org/2000/svg">
<path d="M17.3061 0.893935L17.2 0.787869L17.0939 0.893935L10 7.98787L2.90607 0.893934L2.8 0.787868L2.69393 0.893934L0.893935 2.69393L0.787869 2.8L0.893935 2.90607L7.98787 10L0.893934 17.0939L0.787868 17.2L0.893934 17.3061L2.69393 19.1061L2.8 19.2121L2.90607 19.1061L10 12.0121L17.0939 19.1061L17.2 19.2121L17.3061 19.1061L19.1061 17.3061L19.2121 17.2L19.1061 17.0939L12.0121 10L19.1061 2.90607L19.2121 2.8L19.1061 2.69393L17.3061 0.893935Z" fill="#1F1F1F" stroke="#1F1F1F" stroke-width="0.3"/>
</svg>
