<svg width="66" height="16" viewBox="0 0 66 16" fill="none" xmlns="http://www.w3.org/2000/svg">
<path d="M6.08 15.28C4.70667 15.28 3.54667 14.9733 2.6 14.36C1.65333 13.7467 0.98 12.9 0.58 11.82L2.94 10.44C3.48667 11.8667 4.56 12.58 6.16 12.58C6.90667 12.58 7.46667 12.4467 7.84 12.18C8.21333 11.9133 8.4 11.5533 8.4 11.1C8.4 10.6067 8.18 10.2267 7.74 9.96C7.3 9.68 6.51333 9.38 5.38 9.06C4.15333 8.68667 3.18667 8.25333 2.48 7.76C1.6 7.10667 1.16 6.14667 1.16 4.88C1.16 3.6 1.60667 2.59333 2.5 1.86C3.39333 1.1 4.48 0.719999 5.76 0.719999C6.88 0.719999 7.87333 0.993332 8.74 1.54C9.60667 2.08667 10.28 2.86 10.76 3.86L8.44 5.2C7.88 4 6.98667 3.4 5.76 3.4C5.2 3.4 4.75333 3.53333 4.42 3.8C4.08667 4.05333 3.92 4.38667 3.92 4.8C3.92 5.24 4.1 5.6 4.46 5.88C4.86 6.16 5.56667 6.45333 6.58 6.76L7.54 7.08C7.71333 7.13333 8.01333 7.24667 8.44 7.42C8.84 7.56667 9.13333 7.70667 9.32 7.84C9.97333 8.24 10.4133 8.65333 10.64 9.08C10.9867 9.64 11.16 10.3 11.16 11.06C11.16 12.3533 10.6867 13.38 9.74 14.14C8.79333 14.9 7.57333 15.28 6.08 15.28ZM20.9625 9.54V0.999999H23.7225V15H21.6225L15.6225 6.44V15H12.8625V0.999999H14.9625L20.9625 9.54ZM29.0795 9.22V12.36H34.9795V15H26.3195V0.999999H34.8795V3.64H29.0795V6.62H34.3795V9.22H29.0795ZM49.1398 15H46.1398L45.2998 12.48H39.7198L38.8798 15H35.8998L40.7998 0.999999H44.2198L49.1398 15ZM42.5198 4.18L40.5998 9.9H44.4398L42.5198 4.18ZM56.0592 7.8L61.4392 15H58.2592L53.2592 8.44V15H50.4992V0.999999H53.2592V7.18L58.0592 0.999999H61.2392L56.0592 7.8ZM65.8839 13.56C65.8839 14.0267 65.7172 14.4267 65.3839 14.76C65.0506 15.0933 64.6506 15.26 64.1839 15.26C63.7172 15.26 63.3172 15.0933 62.9839 14.76C62.6506 14.4267 62.4839 14.0267 62.4839 13.56C62.4839 13.0933 62.6506 12.6933 62.9839 12.36C63.3172 12.0267 63.7172 11.86 64.1839 11.86C64.6506 11.86 65.0506 12.0267 65.3839 12.36C65.7172 12.6933 65.8839 13.0933 65.8839 13.56Z" fill="#1F1F1F"/>
</svg>
